<mxfile modified="2019-10-29T04:08:03.509Z" host="www.draw.io" agent="Mozilla/5.0 (X11; Linux x86_64) AppleWebKit/537.36 (KHTML, like Gecko) Chrome/59.0.3071.86 Safari/537.36" etag="7WhJD_owgpru9crZEy4w" version="12.1.4" type="github" pages="1">
  <diagram id="WrMrnn_xkAYBiO1sDNDA" name="Page-1">
    <mxGraphModel dx="1037" dy="669" grid="1" gridSize="10" guides="1" tooltips="1" connect="1" arrows="1" fold="1" page="1" pageScale="1" pageWidth="1654" pageHeight="1169" math="0" shadow="0">
      <root>
        <mxCell id="0"/>
        <mxCell id="1" parent="0"/>
        <mxCell id="mdKW57jxODqLuoBC_FxM-8" value="" style="rounded=1;whiteSpace=wrap;html=1;fillColor=none;fontSize=17;dashed=1;" parent="1" vertex="1">
          <mxGeometry x="170" y="445" width="670" height="60" as="geometry"/>
        </mxCell>
        <mxCell id="ppPx0SE-iNM0lMeHbUDh-1" value="WF Execution" style="ellipse;whiteSpace=wrap;html=1;aspect=fixed;fillColor=#FF0000;strokeColor=#000000;fontColor=#000000;" parent="1" vertex="1">
          <mxGeometry x="540" y="240" width="170" height="170" as="geometry"/>
        </mxCell>
        <mxCell id="ppPx0SE-iNM0lMeHbUDh-3" value="Connectors to AP/EDP2" style="rounded=0;whiteSpace=wrap;html=1;fontFamily=Helvetica;fontSize=12;fontColor=#000000;align=center;strokeColor=#000000;fillColor=#FF0000;rotation=0;" parent="1" vertex="1">
          <mxGeometry x="510" y="392.5" width="80" height="45" as="geometry"/>
        </mxCell>
        <mxCell id="ppPx0SE-iNM0lMeHbUDh-4" value="Pass Parameter" style="rounded=0;whiteSpace=wrap;html=1;fontFamily=Helvetica;fontSize=12;fontColor=#000000;align=center;strokeColor=#000000;fillColor=#FF0000;rotation=0;" parent="1" vertex="1">
          <mxGeometry x="690" y="360" width="80" height="40" as="geometry"/>
        </mxCell>
        <mxCell id="ppPx0SE-iNM0lMeHbUDh-5" value="Scheduler" style="ellipse;whiteSpace=wrap;html=1;aspect=fixed;strokeColor=#000000;fillColor=#FFFF00;fontColor=#000000;" parent="1" vertex="1">
          <mxGeometry x="280" y="265" width="140" height="140" as="geometry"/>
        </mxCell>
        <mxCell id="ppPx0SE-iNM0lMeHbUDh-6" value="Calendar" style="ellipse;whiteSpace=wrap;html=1;aspect=fixed;strokeColor=#000000;fillColor=#FFFF00;fontColor=#000000;" parent="1" vertex="1">
          <mxGeometry x="220" y="335" width="80" height="80" as="geometry"/>
        </mxCell>
        <mxCell id="ppPx0SE-iNM0lMeHbUDh-8" value="Webapi" style="rounded=0;whiteSpace=wrap;html=1;fontFamily=Helvetica;fontSize=12;fontColor=#000000;align=center;strokeColor=#000000;fillColor=#FFFF00;rotation=0;" parent="1" vertex="1">
          <mxGeometry x="590" y="205" width="80" height="40" as="geometry"/>
        </mxCell>
        <mxCell id="ppPx0SE-iNM0lMeHbUDh-9" value="Exp/Imp" style="rounded=0;whiteSpace=wrap;html=1;fontFamily=Helvetica;fontSize=12;fontColor=#000000;align=center;strokeColor=#000000;fillColor=#00CCCC;" parent="1" vertex="1">
          <mxGeometry x="260" y="455" width="60" height="40" as="geometry"/>
        </mxCell>
        <mxCell id="ppPx0SE-iNM0lMeHbUDh-10" value="Transfer" style="rounded=0;whiteSpace=wrap;html=1;fontFamily=Helvetica;fontSize=12;fontColor=#000000;align=center;strokeColor=#000000;fillColor=#00CCCC;" parent="1" vertex="1">
          <mxGeometry x="340" y="455" width="60" height="40" as="geometry"/>
        </mxCell>
        <mxCell id="ppPx0SE-iNM0lMeHbUDh-17" value="Scheduler Task" style="rounded=0;whiteSpace=wrap;html=1;fontFamily=Helvetica;fontSize=12;fontColor=#000000;align=center;strokeColor=#000000;fillColor=#FFFF00;" parent="1" vertex="1">
          <mxGeometry x="410" y="285" width="140" height="40" as="geometry"/>
        </mxCell>
        <mxCell id="ppPx0SE-iNM0lMeHbUDh-19" value="Scheduler UI" style="rounded=0;whiteSpace=wrap;html=1;fontFamily=Helvetica;fontSize=12;fontColor=#000000;align=center;strokeColor=#000000;fillColor=#FFFF00;" parent="1" vertex="1">
          <mxGeometry x="350" y="230" width="150" height="40" as="geometry"/>
        </mxCell>
        <mxCell id="ppPx0SE-iNM0lMeHbUDh-20" value="Calendar UI" style="rounded=0;whiteSpace=wrap;html=1;fontFamily=Helvetica;fontSize=12;fontColor=#000000;align=center;strokeColor=#000000;fillColor=#00CCCC;" parent="1" vertex="1">
          <mxGeometry x="170" y="330" width="70" height="30" as="geometry"/>
        </mxCell>
        <mxCell id="ppPx0SE-iNM0lMeHbUDh-21" value="Holiday" style="rounded=0;whiteSpace=wrap;html=1;fontFamily=Helvetica;fontSize=12;fontColor=#000000;align=center;strokeColor=#000000;fillColor=#00CCCC;" parent="1" vertex="1">
          <mxGeometry x="170" y="390" width="70" height="30" as="geometry"/>
        </mxCell>
        <mxCell id="ppPx0SE-iNM0lMeHbUDh-24" value="Monitor" style="rounded=0;whiteSpace=wrap;html=1;fontFamily=Helvetica;fontSize=12;fontColor=#000000;align=center;strokeColor=#000000;fillColor=#FF8000;rotation=0;" parent="1" vertex="1">
          <mxGeometry x="700" y="270" width="80" height="40" as="geometry"/>
        </mxCell>
        <mxCell id="pu2w9-FzZlGdTxsabpHd-1" value="Delay Monitor" style="rounded=0;whiteSpace=wrap;html=1;fontFamily=Helvetica;fontSize=12;fontColor=#000000;align=center;strokeColor=#000000;fillColor=#FFFF00;" parent="1" vertex="1">
          <mxGeometry x="400" y="370" width="60" height="40" as="geometry"/>
        </mxCell>
        <mxCell id="pu2w9-FzZlGdTxsabpHd-2" value="Folder" style="rounded=0;whiteSpace=wrap;html=1;fontFamily=Helvetica;fontSize=12;fontColor=#000000;align=center;strokeColor=#000000;fillColor=#FFFF00;" parent="1" vertex="1">
          <mxGeometry x="415" y="455" width="70" height="40" as="geometry"/>
        </mxCell>
        <mxCell id="pu2w9-FzZlGdTxsabpHd-3" value="Authority" style="rounded=0;whiteSpace=wrap;html=1;fontFamily=Helvetica;fontSize=12;fontColor=#000000;align=center;strokeColor=#000000;fillColor=#FF8000;" parent="1" vertex="1">
          <mxGeometry x="485" y="455" width="80" height="40" as="geometry"/>
        </mxCell>
        <mxCell id="ppPx0SE-iNM0lMeHbUDh-7" value="Workflow UI" style="rounded=0;whiteSpace=wrap;html=1;fontFamily=Helvetica;fontSize=12;fontColor=#000000;align=center;strokeColor=#000000;fillColor=#FF8000;" parent="1" vertex="1">
          <mxGeometry x="500" y="220" width="80" height="40" as="geometry"/>
        </mxCell>
        <mxCell id="pu2w9-FzZlGdTxsabpHd-4" value="Audit" style="rounded=0;whiteSpace=wrap;html=1;fontFamily=Helvetica;fontSize=12;fontColor=#000000;align=center;strokeColor=#000000;fillColor=#00CCCC;" parent="1" vertex="1">
          <mxGeometry x="180" y="455" width="60" height="40" as="geometry"/>
        </mxCell>
        <mxCell id="kLnMrsaiNAEFI6XBptF1-1" value="Dynamic parameter" style="rounded=0;whiteSpace=wrap;html=1;fontFamily=Helvetica;fontSize=12;fontColor=#000000;align=center;strokeColor=#000000;fillColor=#FF8000;rotation=0;" parent="1" vertex="1">
          <mxGeometry x="700" y="315" width="80" height="40" as="geometry"/>
        </mxCell>
        <mxCell id="mdKW57jxODqLuoBC_FxM-1" value="&lt;font style=&quot;font-size: 14px;&quot;&gt;Overlap means relevance&lt;br style=&quot;font-size: 14px;&quot;&gt;Color stands for different severity:&lt;br style=&quot;font-size: 14px;&quot;&gt;&lt;span style=&quot;background-color: rgb(255, 0, 128); font-size: 14px;&quot;&gt;L1&lt;/span&gt;: highest, the bug may make whole workflow not work&lt;br style=&quot;font-size: 14px;&quot;&gt;&lt;span style=&quot;background-color: rgb(255, 128, 0); font-size: 14px;&quot;&gt;L2&lt;/span&gt;: user will meet troubles, but the core part works well&lt;br style=&quot;font-size: 14px;&quot;&gt;&lt;span style=&quot;background-color: rgb(255, 255, 0); font-size: 14px;&quot;&gt;L3&lt;/span&gt;: Batch function will be limited, but user can still use basic function&lt;br style=&quot;font-size: 14px;&quot;&gt;&lt;span style=&quot;background-color: rgb(0, 204, 204); font-size: 14px;&quot;&gt;L4&lt;/span&gt;: lowest, it doesn&#39;t affect normal usage, or little customer use it&lt;br style=&quot;font-size: 14px;&quot;&gt;&lt;/font&gt;" style="text;html=1;resizable=0;points=[];autosize=1;align=left;verticalAlign=top;spacingTop=-4;fontSize=14;" parent="1" vertex="1">
          <mxGeometry x="180" y="510" width="380" height="90" as="geometry"/>
        </mxCell>
        <mxCell id="mdKW57jxODqLuoBC_FxM-2" value="Job Execution Summary" style="rounded=0;whiteSpace=wrap;html=1;fontFamily=Helvetica;fontSize=12;fontColor=#000000;align=center;strokeColor=#000000;fillColor=#00CCCC;" parent="1" vertex="1">
          <mxGeometry x="490" y="340" width="60" height="50" as="geometry"/>
        </mxCell>
        <mxCell id="mdKW57jxODqLuoBC_FxM-3" value="Smart Editor" style="rounded=0;whiteSpace=wrap;html=1;fontFamily=Helvetica;fontSize=12;fontColor=#000000;align=center;strokeColor=#000000;fillColor=#FF8000;rotation=0;" parent="1" vertex="1">
          <mxGeometry x="680" y="225" width="80" height="40" as="geometry"/>
        </mxCell>
        <mxCell id="mdKW57jxODqLuoBC_FxM-4" value="Regular Trigger" style="rounded=0;whiteSpace=wrap;html=1;fontFamily=Helvetica;fontSize=12;fontColor=#000000;align=center;strokeColor=#000000;fillColor=#FFFF00;" parent="1" vertex="1">
          <mxGeometry x="235" y="250" width="90" height="30" as="geometry"/>
        </mxCell>
        <mxCell id="mdKW57jxODqLuoBC_FxM-5" value="Date Spec Trigger" style="rounded=0;whiteSpace=wrap;html=1;fontFamily=Helvetica;fontSize=12;fontColor=#000000;align=center;strokeColor=#000000;fillColor=#FFFF00;" parent="1" vertex="1">
          <mxGeometry x="190" y="285" width="105" height="30" as="geometry"/>
        </mxCell>
        <mxCell id="mdKW57jxODqLuoBC_FxM-6" value="BWF functions and relationship" style="text;html=1;resizable=0;points=[];autosize=1;align=left;verticalAlign=top;spacingTop=-4;fontSize=17;" parent="1" vertex="1">
          <mxGeometry x="315" y="156" width="250" height="20" as="geometry"/>
        </mxCell>
        <mxCell id="mdKW57jxODqLuoBC_FxM-7" value="Common functions that are not&lt;br&gt;close related with BWF business" style="text;html=1;resizable=0;points=[];autosize=1;align=left;verticalAlign=top;spacingTop=-4;fontSize=17;" parent="1" vertex="1">
          <mxGeometry x="580" y="455" width="260" height="40" as="geometry"/>
        </mxCell>
        <mxCell id="9kkmcwC_v2WLfRB5oTVb-1" value="versioning" style="rounded=0;whiteSpace=wrap;html=1;fontFamily=Helvetica;fontSize=12;fontColor=#000000;align=center;strokeColor=#000000;fillColor=#FFFF00;rotation=0;" vertex="1" parent="1">
          <mxGeometry x="610" y="397.5" width="80" height="45" as="geometry"/>
        </mxCell>
      </root>
    </mxGraphModel>
  </diagram>
</mxfile>
